<svg version="1.1" id="Layer_1" xmlns="http://www.w3.org/2000/svg" xmlns:xlink="http://www.w3.org/1999/xlink" x="0px" y="0px"
	 width="100%" viewBox="0 0 352 352" enable-background="new 0 0 352 352" xml:space="preserve">
<path fill="#000000" opacity="1.000000" stroke="none" 
	d="
M260.001282,289.261230 
	C250.521622,293.240326 241.313507,295.339783 231.804276,290.669067 
	C230.731720,290.142303 229.655991,289.996277 228.438889,290.050568 
	C224.450027,290.228455 220.427917,290.573303 216.465210,290.261536 
	C202.074127,289.129517 188.137024,292.843475 173.981934,293.850739 
	C156.470490,295.096832 139.027939,293.629181 124.056679,282.634827 
	C122.163910,281.244843 120.566086,280.846771 118.196976,281.111572 
	C107.111984,282.350586 96.766464,279.835968 87.090256,274.311737 
	C84.683441,272.937653 83.436081,270.524933 81.355019,268.586426 
	C80.788086,268.800262 80.150681,268.936768 79.623215,269.255310 
	C72.599709,273.496826 68.176613,271.124329 67.734726,262.750732 
	C67.126961,251.234055 72.161537,241.720459 79.158112,233.254944 
	C86.891434,223.897949 96.412231,217.572388 109.133102,216.434265 
	C113.604530,216.034210 116.657005,211.423141 120.162506,208.503723 
	C121.351936,207.513168 120.215691,205.929001 119.598892,204.827850 
	C112.718666,192.544891 113.144966,180.071014 118.500687,167.445816 
	C119.175789,165.854355 119.877861,164.358276 117.807510,163.169968 
	C116.615143,162.485596 115.521202,161.501480 116.488724,159.950363 
	C117.250710,158.728745 118.413261,159.036469 119.609413,159.410690 
	C120.709747,159.754913 121.926102,159.963928 122.838699,158.538254 
	C122.902466,155.583099 117.654213,155.545822 118.824539,152.029449 
	C119.382301,150.353592 121.157600,151.562881 122.619209,151.445755 
	C122.507927,137.788452 127.163353,125.835785 133.949310,114.323227 
	C143.538284,98.055283 150.426849,99.473129 162.858261,102.240402 
	C173.975342,104.715103 184.368210,109.233246 192.095123,118.243675 
	C193.619080,120.020760 195.453400,119.943314 197.715637,120.200180 
	C207.824829,121.348022 215.091309,116.266769 222.906708,111.034088 
	C231.971710,104.964737 241.767334,100.120438 253.256668,99.537453 
	C260.344452,99.177818 264.529633,102.721107 268.125519,107.733078 
	C275.857391,118.509842 280.798981,130.280243 280.274200,143.868637 
	C280.237000,144.831924 280.495575,145.806641 280.609833,146.721756 
	C282.963501,147.683014 284.733490,144.664749 287.258606,146.435989 
	C286.969971,151.192764 280.522308,151.167313 279.443970,155.735062 
	C282.325897,157.045029 285.845306,154.074509 288.270874,157.102859 
	C287.848541,159.973969 284.658997,159.123810 283.473328,160.853424 
	C298.917999,184.256882 300.425171,213.332611 265.467346,232.305923 
	C275.625824,243.670486 279.113403,256.932068 274.765564,271.460938 
	C272.500214,279.031067 268.032837,285.579559 260.001282,289.261230 
M232.080063,112.640144 
	C229.550629,113.915627 227.000336,115.151619 224.495911,116.474434 
	C218.402069,119.693123 218.295410,120.849579 223.555176,125.021088 
	C224.923538,126.106346 227.262863,127.011810 226.141983,129.208969 
	C225.044678,131.359833 223.011963,130.145370 221.268250,129.613342 
	C212.855927,127.046638 204.540466,123.797699 195.456390,126.728760 
	C193.961700,127.211021 191.945587,126.665680 190.912292,125.213402 
	C184.166748,115.732712 173.931931,112.255547 163.502869,109.095802 
	C150.890121,105.274460 146.636353,106.650154 139.879257,117.759460 
	C133.522064,128.211273 127.910484,139.334198 128.570114,151.822983 
	C128.924469,158.531891 127.312195,163.911240 123.772148,168.918610 
	C118.732712,176.046829 118.320374,183.868561 119.952705,191.817078 
	C122.438248,203.920227 129.314331,213.655502 138.084854,222.088089 
	C150.738037,234.253677 166.804871,235.884323 183.178802,236.357376 
	C184.821198,236.404846 186.956223,235.542160 187.352295,237.702332 
	C187.771652,239.989609 185.582733,240.896378 183.742416,240.906693 
	C177.437637,240.942017 171.080170,241.176270 164.835846,240.489120 
	C149.662857,238.819382 137.942703,230.680954 127.971176,219.637863 
	C123.966751,215.203125 121.873268,214.814590 117.642410,219.149597 
	C106.845390,230.212357 102.104256,245.085434 110.328156,260.069153 
	C119.535858,276.845337 134.904816,284.550201 152.992432,287.706848 
	C156.545319,288.326874 160.262833,288.261932 163.889450,288.508087 
	C172.695633,289.105865 181.547928,288.440704 189.948898,285.496155 
	C193.886581,284.116058 197.164612,281.562195 197.848572,276.747375 
	C198.533432,271.926117 194.848984,270.405609 191.910385,268.473114 
	C185.492157,264.252319 178.188950,265.119110 171.059448,265.426727 
	C168.269073,265.547150 165.513443,266.075836 163.002670,263.952606 
	C164.218201,261.026581 166.704575,260.394470 169.051620,259.819580 
	C178.157379,257.589081 186.936111,258.669525 195.170151,263.120850 
	C199.455734,265.437622 202.936478,268.672943 205.043747,273.280792 
	C206.822723,277.170746 204.024826,280.268494 203.383224,283.942413 
	C210.002548,287.208466 216.561188,284.772491 223.011353,284.303528 
	C224.775467,284.175262 224.842484,282.116455 224.486252,280.584503 
	C223.621643,276.866486 225.060791,273.747925 226.797073,270.639160 
	C231.379730,262.434021 238.879272,257.776276 247.026901,253.904541 
	C248.537491,253.186722 250.291443,252.344284 251.397430,254.369888 
	C252.350830,256.116058 250.859970,257.079132 249.689255,258.026581 
	C245.048447,261.782349 240.407852,265.538330 235.766891,269.293915 
	C231.523849,272.727509 231.149597,277.455627 232.585846,282.000305 
	C234.027710,286.562744 238.255173,287.058594 242.535126,286.625671 
	C243.847214,286.492950 245.188751,286.677734 246.516479,286.669098 
	C255.169693,286.612885 262.166138,282.978302 266.660522,275.756104 
	C274.044067,263.891235 271.985046,251.928986 265.488495,240.404373 
	C263.600220,237.054626 260.641357,235.052307 256.346222,236.205597 
	C251.534409,237.497604 246.644562,238.498734 241.831680,239.787079 
	C236.373627,241.248138 230.903107,241.661362 225.312271,241.019882 
	C225.134354,238.144867 227.166794,238.104889 228.622131,237.690491 
	C234.383728,236.049973 240.097733,234.005905 245.981796,233.079132 
	C260.079865,230.858627 270.100800,221.342636 280.393372,213.149918 
	C287.983368,207.108383 289.319977,196.937149 288.227722,187.010590 
	C287.177612,177.466797 283.257812,169.323364 277.662445,161.643555 
	C275.390594,158.525360 274.135437,154.285675 274.311066,150.404327 
	C275.006134,135.045258 269.949219,121.739876 260.907074,109.664215 
	C258.805786,106.857971 255.942673,105.932411 252.566727,106.093872 
	C245.414810,106.435936 238.899796,108.782471 232.080063,112.640144 
M73.828781,255.956100 
	C73.410576,258.841339 71.964256,262.538513 74.969154,264.114319 
	C77.663376,265.527222 78.664886,261.716187 80.332710,260.067078 
	C82.674118,257.751923 85.789192,259.034698 87.062134,262.745300 
	C89.476875,269.784180 100.147812,274.588196 108.079979,271.505310 
	C99.764923,255.816147 95.494110,239.656738 105.930061,222.895172 
	C94.332336,222.613953 77.629524,238.637909 73.828781,255.956100 
z"/>
<path fill="#000000" opacity="1.000000" stroke="none" 
	d="
M238.884109,187.901047 
	C239.784744,184.468643 240.780670,181.445816 243.626251,179.617218 
	C247.994308,176.810272 254.435303,178.157516 257.602631,182.443649 
	C263.134766,189.930008 260.091309,200.020737 251.361908,203.134949 
	C246.319717,204.933762 240.427963,200.453583 239.578781,194.158569 
	C239.315079,192.203720 239.100815,190.242188 238.884109,187.901047 
z"/>
<path fill="#000000" opacity="1.000000" stroke="none" 
	d="
M191.465820,181.725067 
	C195.168839,187.500290 195.314621,192.846237 191.524750,198.312943 
	C188.065796,203.302292 182.496536,203.814270 177.987045,199.687393 
	C170.419815,192.762238 174.359528,180.751389 182.832458,177.975525 
	C186.594971,176.742859 189.295074,178.202576 191.465820,181.725067 
z"/>
<path fill="#000000" opacity="1.000000" stroke="none" 
	d="
M224.444839,201.092468 
	C220.636032,198.876984 217.201126,197.025192 213.305832,200.353241 
	C211.994568,201.473541 210.047958,201.685150 208.914627,199.981613 
	C207.590073,197.990662 209.497101,197.063797 210.723801,196.052460 
	C217.334961,190.602066 220.104828,190.697495 226.729324,196.479385 
	C227.647766,197.281006 228.520279,198.122101 228.205963,199.384598 
	C227.767334,201.146347 226.440170,201.620682 224.444839,201.092468 
z"/>
</svg>